<svg version="1.1" viewBox="0.0 0.0 747.7900262467192 145.86089238845145" fill="none" stroke="none" stroke-linecap="square" stroke-miterlimit="10" xmlns:xlink="http://www.w3.org/1999/xlink" xmlns="http://www.w3.org/2000/svg"><clipPath id="p.0"><path d="m0 0l747.79004 0l0 145.86089l-747.79004 0l0 -145.86089z" clip-rule="nonzero"/></clipPath><g clip-path="url(#p.0)"><path fill="#000000" fill-opacity="0.0" d="m0 0l747.79004 0l0 145.86089l-747.79004 0z" fill-rule="evenodd"/><path fill="#00b0f0" d="m67.15483 101.05407c-7.830742 -4.269081 -16.776573 -6.673065 -25.957294 -6.4934387c-10.647789 0.17113495 -18.193533 5.851761 -28.757572 0.32514954c-11.234658 -5.97155 -15.66148 -20.019318 -9.943527 -31.449135c5.8604517 -11.46394 19.627264 -15.989712 30.862026 -10.001053c10.421436 5.5438347 10.731644 15.638954 16.826881 24.579216c5.223377 7.4687653 12.03965 13.286301 19.954243 17.238846c7.696678 4.294693 16.323967 6.6046143 25.370422 6.4592133c10.530502 0 18.948112 -5.706352 29.369652 -0.15402222c11.209557 5.834648 15.636375 19.882309 9.918419 31.320732c-5.868881 11.455444 -19.627266 15.981216 -30.69432 10.112244c-10.731743 -5.629303 -10.647888 -15.202629 -16.575424 -24.031609c-5.2736893 -7.7595825 -12.282768 -13.833809 -20.373505 -17.906143l0 0z" fill-rule="evenodd"/><path fill="#011c40" d="m114.4582 46.155178c12.492348 0 22.687431 -10.257744 22.687431 -23.00504c0 -12.747297 -10.195084 -23.150446 -22.687431 -23.150446c-12.492355 0 -22.695877 10.40315 -22.695877 23.150446c0.00843811 12.747295 10.203522 23.00504 22.695877 23.00504l0 0z" fill-rule="evenodd"/><path fill="#011c40" d="m67.398056 56.430027c6.6066895 0 11.913918 -5.4496574 11.913918 -12.225407c0 -6.775749 -5.3155594 -12.370918 -11.913918 -12.370918c-6.6066933 0 -12.0647545 5.595169 -12.0647545 12.370918c0.00843811 6.775749 5.4664993 12.225407 12.0647545 12.225407l0 0z" fill-rule="evenodd"/><path fill="#000000" fill-opacity="0.0" d="m137.49783 12.064468l627.07654 0l0 106.64567l-627.07654 0z" fill-rule="evenodd"/><path fill="#011c40" d="m154.98221 92.86446l0 -41.765625l3.828125 0l0 11.609375l-0.546875 -1.28125q1.921875 -4.96875 6.3125 -7.796875q4.40625 -2.84375 10.796875 -2.84375q5.125 0 8.921875 1.96875q3.796875 1.953125 5.921875 5.921875q2.125 3.953125 2.125 9.78125l0 24.40625l-4.0 0l0 -24.078125q0 -7.046875 -3.5625 -10.71875q-3.5625 -3.6875 -9.96875 -3.6875q-4.875 0 -8.484375 2.0q-3.59375 2.0 -5.46875 5.609375q-1.875 3.59375 -1.875 8.640625l0 22.234375l-4.0 0zm69.918076 0.3125q-5.84375 0 -10.53125 -2.671875q-4.671875 -2.6875 -7.390625 -7.484375q-2.71875 -4.796875 -2.71875 -11.03125q0 -6.25 2.71875 -11.046875q2.71875 -4.796875 7.390625 -7.46875q4.6875 -2.6875 10.53125 -2.6875q5.59375 0 10.03125 2.5625q4.453125 2.5625 7.0 7.328125q2.5625 4.75 2.5625 11.3125q0 6.5625 -2.609375 11.328125q-2.59375 4.75 -7.03125 7.3125q-4.4375 2.546875 -9.953125 2.546875zm0.234375 -3.59375q4.796875 0 8.59375 -2.203125q3.8125 -2.203125 6.0 -6.203125q2.203125 -4.0 2.203125 -9.1875q0 -5.28125 -2.203125 -9.234375q-2.1875 -3.96875 -6.0 -6.171875q-3.796875 -2.203125 -8.59375 -2.203125q-4.796875 0 -8.59375 2.203125q-3.796875 2.203125 -6.0 6.171875q-2.203125 3.953125 -2.203125 9.234375q0 5.1875 2.203125 9.1875q2.203125 4.0 6.0 6.203125q3.796875 2.203125 8.59375 2.203125zm16.796875 18.796875l0 -29.03125l0.8125 -7.28125l-0.71875 -7.28125l0 -13.6875l3.90625 0l0 57.28125l-4.0 0zm37.843704 -15.203125q-5.359375 0 -9.28125 -1.953125q-3.921875 -1.953125 -6.046875 -5.90625q-2.109375 -3.96875 -2.109375 -9.8125l0 -24.40625l4.0 0l0 24.078125q0 7.046875 3.59375 10.734375q3.609375 3.671875 10.171875 3.671875q4.71875 0 8.15625 -2.0q3.4375 -2.0 5.28125 -5.640625q1.84375 -3.640625 1.84375 -8.59375l0 -22.25l4.0 0l0 41.765625l-3.84375 0l0 -11.59375l0.5625 1.359375q-1.84375 4.875 -6.125 7.71875q-4.28125 2.828125 -10.203125 2.828125zm36.566803 -0.3125l0 -41.765625l4.0 0l0 41.765625l-4.0 0zm2.0 -51.921875q-1.359375 0 -2.328125 -0.953125q-0.953125 -0.96875 -0.953125 -2.25q0 -1.359375 0.953125 -2.3125q0.96875 -0.96875 2.328125 -0.96875q1.4375 0 2.359375 0.921875q0.921875 0.921875 0.921875 2.28125q0 1.359375 -0.921875 2.328125q-0.921875 0.953125 -2.359375 0.953125zm18.879974 51.921875l0 -41.765625l3.828125 0l0 11.453125l-0.390625 -1.28125q1.765625 -5.046875 5.921875 -7.765625q4.15625 -2.71875 10.390625 -2.71875l0 3.921875q-0.234375 0 -0.484375 -0.03125q-0.234375 -0.046875 -0.46875 -0.046875q-6.96875 0 -10.890625 4.359375q-3.90625 4.359375 -3.90625 12.109375l0 21.765625l-4.0 0zm30.799988 0l0 -41.765625l4.0 0l0 41.765625l-4.0 0zm2.0 -51.921875q-1.359375 0 -2.328125 -0.953125q-0.953125 -0.96875 -0.953125 -2.25q0 -1.359375 0.953125 -2.3125q0.96875 -0.96875 2.328125 -0.96875q1.4375 0 2.359375 0.921875q0.921875 0.921875 0.921875 2.28125q0 1.359375 -0.921875 2.328125q-0.921875 0.953125 -2.359375 0.953125zm18.879974 51.921875l0 -41.765625l3.828125 0l0 11.609375l-0.546875 -1.28125q1.921875 -4.96875 6.3125 -7.796875q4.40625 -2.84375 10.796875 -2.84375q5.125 0 8.921875 1.96875q3.796875 1.953125 5.921875 5.921875q2.125 3.953125 2.125 9.78125l0 24.40625l-4.0 0l0 -24.078125q0 -7.046875 -3.5625 -10.71875q-3.5625 -3.6875 -9.96875 -3.6875q-4.875 0 -8.484375 2.0q-3.59375 2.0 -5.46875 5.609375q-1.875 3.59375 -1.875 8.640625l0 22.234375l-4.0 0zm71.19931 15.84375q-5.6875 0 -10.8125 -1.765625q-5.109375 -1.765625 -8.3125 -4.875l2.15625 -3.046875q3.125 2.890625 7.484375 4.484375q4.359375 1.59375 9.40625 1.59375q8.390625 0 12.34375 -3.921875q3.96875 -3.90625 3.96875 -12.3125l0 -11.59375l0.796875 -6.25l-0.640625 -6.234375l0 -13.6875l3.84375 0l0 37.28125q0 10.484375 -5.078125 15.40625q-5.078125 4.921875 -15.15625 4.921875zm-1.125 -17.359375q-5.921875 0 -10.609375 -2.59375q-4.671875 -2.609375 -7.4375 -7.203125q-2.75 -4.609375 -2.75 -10.53125q0 -6.0 2.75 -10.546875q2.765625 -4.5625 7.4375 -7.125q4.6875 -2.5625 10.609375 -2.5625q5.6875 0 10.203125 2.4375q4.515625 2.4375 7.15625 6.96875q2.640625 4.515625 2.640625 10.828125q0 6.25 -2.640625 10.8125q-2.640625 4.546875 -7.15625 7.03125q-4.515625 2.484375 -10.203125 2.484375zm0.328125 -3.609375q5.03125 0 8.875 -2.109375q3.84375 -2.125 6.03125 -5.921875q2.203125 -3.796875 2.203125 -8.6875q0 -4.953125 -2.203125 -8.703125q-2.1875 -3.765625 -6.03125 -5.84375q-3.84375 -2.09375 -8.875 -2.09375q-4.890625 0 -8.765625 2.09375q-3.875 2.078125 -6.078125 5.84375q-2.203125 3.75 -2.203125 8.703125q0 4.890625 2.203125 8.6875q2.203125 3.796875 6.078125 5.921875q3.875 2.109375 8.765625 2.109375z" fill-rule="nonzero"/><path fill="#00b0f0" d="m497.30185 92.86446l0 -41.765625l3.828125 0l0 11.53125l-0.546875 -1.28125q1.828125 -4.890625 6.140625 -7.71875q4.328125 -2.84375 10.4062195 -2.84375q6.25 0 10.53125 3.15625q4.28125 3.15625 5.390625 9.40625l-1.359375 -0.5625q1.6875 -5.359375 6.328125 -8.671875q4.640625 -3.328125 11.28125 -3.328125q5.03125 0 8.75 1.96875q3.71875 1.953125 5.796875 5.921875q2.09375 3.953125 2.09375 9.78125l0 24.40625l-4.0 0l0 -24.078125q0 -7.046875 -3.453125 -10.71875q-3.4375 -3.6875 -9.59375 -3.6875q-4.71875 0 -8.15625 2.0q-3.4375 2.0 -5.28125 5.609375q-1.84375 3.59375 -1.84375 8.640625l0 22.234375l-4.0 0l0 -24.078125q0 -7.046875 -3.4375 -10.71875q-3.4375 -3.6875 -9.59375 -3.6875q-4.7187195 0 -8.1718445 2.0q-3.4375 2.0 -5.28125 5.609375q-1.828125 3.59375 -1.828125 8.640625l0 22.234375l-4.0 0zm85.1199 0l0 -41.765625l4.0 0l0 41.765625l-4.0 0zm2.0 -51.921875q-1.359375 0 -2.328125 -0.953125q-0.953125 -0.96875 -0.953125 -2.25q0 -1.359375 0.953125 -2.3125q0.96875 -0.96875 2.328125 -0.96875q1.4375 0 2.359375 0.921875q0.921875 0.921875 0.921875 2.28125q0 1.359375 -0.921875 2.328125q-0.921875 0.953125 -2.359375 0.953125zm18.879944 51.921875l0 -41.765625l3.828125 0l0 11.609375l-0.546875 -1.28125q1.921875 -4.96875 6.3125 -7.796875q4.40625 -2.84375 10.796875 -2.84375q5.125 0 8.921875 1.96875q3.796875 1.953125 5.921875 5.921875q2.125 3.953125 2.125 9.78125l0 24.40625l-4.0 0l0 -24.078125q0 -7.046875 -3.5625 -10.71875q-3.5625 -3.6875 -9.96875 -3.6875q-4.875 0 -8.484375 2.0q-3.59375 2.0 -5.46875 5.609375q-1.875 3.59375 -1.875 8.640625l0 22.234375l-4.0 0zm69.91809 0.3125q-5.84375 0 -10.53125 -2.671875q-4.671875 -2.6875 -7.390625 -7.484375q-2.71875 -4.796875 -2.71875 -11.03125q0 -6.328125 2.71875 -11.078125q2.71875 -4.765625 7.390625 -7.4375q4.6875 -2.6875 10.53125 -2.6875q5.515625 0 9.953125 2.5625q4.4375 2.5625 7.03125 7.28125q2.609375 4.71875 2.609375 11.359375q0 6.46875 -2.5625 11.28125q-2.546875 4.796875 -7.0 7.359375q-4.4375 2.546875 -10.03125 2.546875zm0.234375 -3.59375q4.796875 0 8.59375 -2.203125q3.8125 -2.203125 6.0 -6.203125q2.203125 -4.0 2.203125 -9.1875q0 -5.28125 -2.203125 -9.234375q-2.1875 -3.96875 -6.0 -6.171875q-3.796875 -2.203125 -8.59375 -2.203125q-4.796875 0 -8.59375 2.203125q-3.796875 2.203125 -6.0 6.171875q-2.203125 3.953125 -2.203125 9.234375q0 5.1875 2.203125 9.1875q2.203125 4.0 6.0 6.203125q3.796875 2.203125 8.59375 2.203125zm16.890625 3.28125l0 -13.6875l0.71875 -7.265625l-0.8125 -7.28125l0 -31.125l4.0 0l0 59.359375l-3.90625 0zm31.359314 0.3125q-5.203125 0 -9.734375 -1.515625q-4.515625 -1.515625 -7.0 -3.84375l1.84375 -3.1875q2.40625 2.078125 6.40625 3.5625q4.0 1.46875 8.640625 1.46875q6.5625 0 9.4375 -2.15625q2.875 -2.15625 2.875 -5.6875q0 -2.546875 -1.484375 -4.03125q-1.46875 -1.484375 -3.953125 -2.28125q-2.484375 -0.796875 -5.4375 -1.3125q-2.953125 -0.53125 -5.921875 -1.171875q-2.953125 -0.640625 -5.4375 -1.828125q-2.484375 -1.203125 -3.96875 -3.328125q-1.46875 -2.125 -1.46875 -5.640625q0 -3.203125 1.75 -5.75q1.765625 -2.5625 5.28125 -4.125q3.53125 -1.5625 8.8125 -1.5625q3.90625 0 7.859375 1.125q3.96875 1.109375 6.453125 2.953125l-1.84375 3.203125q-2.640625 -2.0 -5.921875 -2.875q-3.28125 -0.890625 -6.640625 -0.890625q-6.078125 0 -8.921875 2.25q-2.828125 2.234375 -2.828125 5.59375q0 2.640625 1.46875 4.203125q1.484375 1.5625 3.96875 2.40625q2.484375 0.828125 5.4375 1.359375q2.96875 0.515625 5.921875 1.15625q2.953125 0.640625 5.4375 1.796875q2.484375 1.15625 3.953125 3.203125q1.484375 2.03125 1.484375 5.46875q0 3.4375 -1.875 6.0q-1.875 2.5625 -5.5625 4.0q-3.671875 1.4375 -9.03125 1.4375z" fill-rule="nonzero"/></g></svg>