<svg version="1.1" viewBox="0.0 0.0 747.7900262467192 145.86089238845145" fill="none" stroke="none" stroke-linecap="square" stroke-miterlimit="10" xmlns:xlink="http://www.w3.org/1999/xlink" xmlns="http://www.w3.org/2000/svg"><clipPath id="p.0"><path d="m0 0l747.79004 0l0 145.86089l-747.79004 0l0 -145.86089z" clip-rule="nonzero"/></clipPath><g clip-path="url(#p.0)"><path fill="#000000" fill-opacity="0.0" d="m0 0l747.79004 0l0 145.86089l-747.79004 0z" fill-rule="evenodd"/><path fill="#00b0f0" d="m67.15483 101.05407c-7.830742 -4.269081 -16.776573 -6.673065 -25.957294 -6.4934387c-10.647789 0.17113495 -18.193533 5.851761 -28.757572 0.32514954c-11.234658 -5.97155 -15.66148 -20.019318 -9.943527 -31.449135c5.8604517 -11.46394 19.627264 -15.989712 30.862026 -10.001053c10.421436 5.5438347 10.731644 15.638954 16.826881 24.579216c5.223377 7.4687653 12.03965 13.286301 19.954243 17.238846c7.696678 4.294693 16.323967 6.6046143 25.370422 6.4592133c10.530502 0 18.948112 -5.706352 29.369652 -0.15402222c11.209557 5.834648 15.636375 19.882309 9.918419 31.320732c-5.868881 11.455444 -19.627266 15.981216 -30.69432 10.112244c-10.731743 -5.629303 -10.647888 -15.202629 -16.575424 -24.031609c-5.2736893 -7.7595825 -12.282768 -13.833809 -20.373505 -17.906143l0 0z" fill-rule="evenodd"/><path fill="#011c40" d="m114.4582 46.155178c12.492348 0 22.687431 -10.257744 22.687431 -23.00504c0 -12.747297 -10.195084 -23.150446 -22.687431 -23.150446c-12.492355 0 -22.695877 10.40315 -22.695877 23.150446c0.00843811 12.747295 10.203522 23.00504 22.695877 23.00504l0 0z" fill-rule="evenodd"/><path fill="#011c40" d="m67.398056 56.430027c6.6066895 0 11.913918 -5.4496574 11.913918 -12.225407c0 -6.775749 -5.3155594 -12.370918 -11.913918 -12.370918c-6.6066933 0 -12.0647545 5.595169 -12.0647545 12.370918c0.00843811 6.775749 5.4664993 12.225407 12.0647545 12.225407l0 0z" fill-rule="evenodd"/><path fill="#000000" fill-opacity="0.0" d="m137.49783 12.064468l627.07654 0l0 106.64567l-627.07654 0z" fill-rule="evenodd"/><path fill="#011c40" d="m175.85721 50.458214q5.125 0 9.0 1.96875q3.875 1.953125 6.078125 5.953125q2.203125 4.0 2.203125 10.078125l0 24.40625l-5.6875 0l0 -23.84375q0 -6.640625 -3.328125 -10.03125q-3.3125 -3.40625 -9.3125 -3.40625q-4.46875 0 -7.796875 1.796875q-3.3125 1.796875 -5.125 5.203125q-1.796875 3.40625 -1.796875 8.203125l0 22.078125l-5.671875 0l0 -42.0l5.4375 0l0 11.515625l-0.875 -2.15625q2.0 -4.5625 6.390625 -7.15625q4.40625 -2.609375 10.484375 -2.609375zm49.361206 42.8125q-6.0 0 -10.765625 -2.71875q-4.75 -2.734375 -7.46875 -7.53125q-2.71875 -4.796875 -2.71875 -11.203125q0 -6.3125 2.71875 -11.15625q2.71875 -4.84375 7.46875 -7.515625q4.765625 -2.6875 10.765625 -2.6875q5.59375 0 9.953125 2.484375q4.359375 2.484375 6.921875 7.25q2.5625 4.75 2.5625 11.625q0 6.890625 -2.609375 11.65625q-2.59375 4.75 -6.953125 7.28125q-4.359375 2.515625 -9.875 2.515625zm0.40625 -5.046875q4.46875 0 8.03125 -2.03125q3.5625 -2.046875 5.59375 -5.765625q2.046875 -3.71875 2.046875 -8.609375q0 -4.875 -2.046875 -8.546875q-2.03125 -3.6875 -5.59375 -5.765625q-3.5625 -2.078125 -8.03125 -2.078125q-4.40625 0 -7.9375 2.078125q-3.515625 2.078125 -5.59375 5.765625q-2.078125 3.671875 -2.078125 8.546875q0 4.890625 2.078125 8.609375q2.078125 3.71875 5.59375 5.765625q3.53125 2.03125 7.9375 2.03125zm15.59375 20.15625l0 -28.0l0.796875 -8.46875l-0.5625 -8.40625l0 -12.640625l5.4375 0l0 57.515625l-5.671875 0zm38.880554 -15.109375q-5.359375 0 -9.359375 -2.0q-4.0 -2.0 -6.203125 -6.0q-2.203125 -4.0 -2.203125 -10.0l0 -24.40625l5.6875 0l0 23.765625q0 6.71875 3.3125 10.125q3.328125 3.390625 9.328125 3.390625q4.390625 0 7.625 -1.796875q3.25 -1.796875 4.96875 -5.234375q1.71875 -3.453125 1.71875 -8.25l0 -22.0l5.6875 0l0 42.0l-5.4375 0l0 -11.515625l0.875 2.078125q-2.0 4.640625 -6.203125 7.25q-4.203125 2.59375 -9.796875 2.59375zm36.400574 -0.40625l0 -42.0l5.671875 0l0 42.0l-5.671875 0zm2.875 -51.28125q-1.765625 0 -2.96875 -1.203125q-1.1875 -1.203125 -1.1875 -2.875q0 -1.6875 1.1875 -2.84375q1.203125 -1.15625 2.96875 -1.15625q1.765625 0 2.953125 1.125q1.203125 1.109375 1.203125 2.796875q0 1.75 -1.15625 2.953125q-1.15625 1.203125 -3.0 1.203125zm18.644989 51.28125l0 -42.0l5.4375 0l0 11.4375l-0.5625 -2.0q1.765625 -4.796875 5.921875 -7.3125q4.15625 -2.53125 10.328125 -2.53125l0 5.53125q-0.328125 0 -0.65625 -0.03125q-0.3125 -0.046875 -0.625 -0.046875q-6.640625 0 -10.40625 4.046875q-3.765625 4.03125 -3.765625 11.46875l0 21.4375l-5.671875 0zm31.439972 0l0 -42.0l5.671875 0l0 42.0l-5.671875 0zm2.875 -51.28125q-1.765625 0 -2.96875 -1.203125q-1.1875 -1.203125 -1.1875 -2.875q0 -1.6875 1.1875 -2.84375q1.203125 -1.15625 2.96875 -1.15625q1.765625 0 2.953125 1.125q1.203125 1.109375 1.203125 2.796875q0 1.75 -1.15625 2.953125q-1.15625 1.203125 -3.0 1.203125zm40.08246 8.875q5.125 0 9.0 1.96875q3.875 1.953125 6.078125 5.953125q2.203125 4.0 2.203125 10.078125l0 24.40625l-5.6875 0l0 -23.84375q0 -6.640625 -3.328125 -10.03125q-3.3125 -3.40625 -9.3125 -3.40625q-4.46875 0 -7.796875 1.796875q-3.3125 1.796875 -5.125 5.203125q-1.796875 3.40625 -1.796875 8.203125l0 22.078125l-5.671875 0l0 -42.0l5.4375 0l0 11.515625l-0.875 -2.15625q2.0 -4.5625 6.390625 -7.15625q4.40625 -2.609375 10.484375 -2.609375zm50.56433 58.328125q-5.765625 0 -11.046875 -1.6875q-5.28125 -1.671875 -8.5625 -4.796875l2.890625 -4.3125q2.953125 2.640625 7.3125 4.1875q4.359375 1.5625 9.25 1.5625q8.0 0 11.75 -3.71875q3.765625 -3.71875 3.765625 -11.5625l0 -10.46875l0.796875 -7.203125l-0.5625 -7.203125l0 -12.71875l5.4375 0l0 36.875q0 10.890625 -5.328125 15.96875q-5.3125 5.078125 -15.703125 5.078125zm-1.046875 -17.515625q-6.0 0 -10.796875 -2.59375q-4.796875 -2.609375 -7.5625 -7.25q-2.75 -4.640625 -2.75 -10.640625q0 -6.0 2.75 -10.59375q2.765625 -4.609375 7.5625 -7.171875q4.796875 -2.5625 10.796875 -2.5625q5.609375 0 10.078125 2.328125q4.484375 2.3125 7.125 6.875q2.640625 4.5625 2.640625 11.125q0 6.5625 -2.640625 11.125q-2.640625 4.546875 -7.125 6.953125q-4.46875 2.40625 -10.078125 2.40625zm0.5625 -5.046875q4.640625 0 8.234375 -1.953125q3.609375 -1.96875 5.6875 -5.4375q2.078125 -3.484375 2.078125 -8.046875q0 -4.5625 -2.078125 -8.0q-2.078125 -3.4375 -5.6875 -5.390625q-3.59375 -1.96875 -8.234375 -1.96875q-4.5625 0 -8.203125 1.96875q-3.640625 1.953125 -5.6875 5.390625q-2.03125 3.4375 -2.03125 8.0q0 4.5625 2.03125 8.046875q2.046875 3.46875 5.6875 5.4375q3.640625 1.953125 8.203125 1.953125z" fill-rule="nonzero"/><path fill="#00b0f0" d="m552.3437 50.458214q5.109375 0 8.90625 1.96875q3.8125 1.953125 5.921875 5.953125q2.125 4.0 2.125 10.078125l0 24.40625l-5.671875 0l0 -23.84375q0 -6.640625 -3.171875 -10.03125q-3.15625 -3.40625 -8.921875 -3.40625q-4.3125 0 -7.484375 1.796875q-3.15625 1.796875 -4.875 5.203125q-1.71875 3.40625 -1.71875 8.203125l0 22.078125l-5.671875 0l0 -23.84375q0 -6.640625 -3.203125 -10.03125q-3.203125 -3.40625 -8.953125 -3.40625q-4.25 0 -7.453125 1.796875q-3.1874695 1.796875 -4.9218445 5.203125q-1.71875 3.40625 -1.71875 8.203125l0 22.078125l-5.671875 0l0 -42.0l5.4375 0l0 11.359375l-0.875 -2.0q1.921875 -4.5625 6.1875 -7.15625q4.2812195 -2.609375 10.1249695 -2.609375q6.15625 0 10.46875 3.09375q4.328125 3.078125 5.609375 9.234375l-2.234375 -0.875q1.84375 -5.125 6.515625 -8.28125q4.6875 -3.171875 11.25 -3.171875zm32.39557 42.40625l0 -42.0l5.671875 0l0 42.0l-5.671875 0zm2.875 -51.28125q-1.765625 0 -2.96875 -1.203125q-1.1875 -1.203125 -1.1875 -2.875q0 -1.6875 1.1875 -2.84375q1.203125 -1.15625 2.96875 -1.15625q1.765625 0 2.953125 1.125q1.203125 1.109375 1.203125 2.796875q0 1.75 -1.15625 2.953125q-1.15625 1.203125 -3.0 1.203125zm40.08246 8.875q5.125 0 9.0 1.96875q3.875 1.953125 6.078125 5.953125q2.203125 4.0 2.203125 10.078125l0 24.40625l-5.6875 0l0 -23.84375q0 -6.640625 -3.328125 -10.03125q-3.3125 -3.40625 -9.3125 -3.40625q-4.46875 0 -7.796875 1.796875q-3.3125 1.796875 -5.125 5.203125q-1.796875 3.40625 -1.796875 8.203125l0 22.078125l-5.671875 0l0 -42.0l5.4375 0l0 11.515625l-0.875 -2.15625q2.0 -4.5625 6.390625 -7.15625q4.40625 -2.609375 10.484375 -2.609375zm49.361206 42.8125q-6.0 0 -10.765625 -2.71875q-4.75 -2.734375 -7.46875 -7.5625q-2.71875 -4.84375 -2.71875 -11.171875q0 -6.390625 2.71875 -11.1875q2.71875 -4.8125 7.46875 -7.484375q4.765625 -2.6875 10.765625 -2.6875q5.515625 0 9.875 2.484375q4.359375 2.484375 6.953125 7.25q2.609375 4.75 2.609375 11.625q0 6.8125 -2.5625 11.609375q-2.5625 4.796875 -6.921875 7.328125q-4.359375 2.515625 -9.953125 2.515625zm0.40625 -5.046875q4.46875 0 8.03125 -2.03125q3.5625 -2.046875 5.59375 -5.765625q2.046875 -3.71875 2.046875 -8.609375q0 -4.953125 -2.046875 -8.625q-2.03125 -3.6875 -5.59375 -5.71875q-3.5625 -2.046875 -8.03125 -2.046875q-4.40625 0 -7.9375 2.046875q-3.515625 2.03125 -5.59375 5.71875q-2.078125 3.671875 -2.078125 8.625q0 4.890625 2.078125 8.609375q2.078125 3.71875 5.59375 5.765625q3.53125 2.03125 7.9375 2.03125zm15.828125 4.640625l0 -12.640625l0.5625 -8.484375l-0.796875 -8.46875l0 -29.765625l5.671875 0l0 59.359375l-5.4375 0zm32.568054 0.40625q-5.203125 0 -9.84375 -1.484375q-4.640625 -1.484375 -7.28125 -3.71875l2.5625 -4.484375q2.5625 1.921875 6.5625 3.328125q4.0 1.390625 8.390625 1.390625q6.0 0 8.640625 -1.875q2.640625 -1.875 2.640625 -5.0q0 -2.328125 -1.484375 -3.640625q-1.46875 -1.328125 -3.875 -2.0q-2.390625 -0.6875 -5.359375 -1.15625q-2.953125 -0.484375 -5.875 -1.125q-2.921875 -0.640625 -5.328125 -1.875q-2.390625 -1.25 -3.875 -3.40625q-1.484375 -2.15625 -1.484375 -5.765625q0 -3.4375 1.921875 -6.15625q1.921875 -2.71875 5.640625 -4.28125q3.71875 -1.5625 9.078125 -1.5625q4.078125 0 8.15625 1.09375q4.09375 1.078125 6.734375 2.828125l-2.484375 4.5625q-2.796875 -1.921875 -6.0 -2.75q-3.203125 -0.84375 -6.40625 -0.84375q-5.671875 0 -8.359375 1.96875q-2.671875 1.953125 -2.671875 4.984375q0 2.40625 1.46875 3.765625q1.484375 1.359375 3.921875 2.125q2.453125 0.75 5.359375 1.234375q2.921875 0.484375 5.84375 1.171875q2.921875 0.671875 5.359375 1.828125q2.4375 1.15625 3.921875 3.28125q1.484375 2.109375 1.484375 5.5625q0 3.671875 -2.046875 6.359375q-2.03125 2.671875 -5.921875 4.15625q-3.875 1.484375 -9.390625 1.484375z" fill-rule="nonzero"/></g></svg>